<?xml version="1.0" standalone="no"?>
<!DOCTYPE svg PUBLIC "-//W3C//DTD SVG 20010904//EN"
 "http://www.w3.org/TR/2001/REC-SVG-20010904/DTD/svg10.dtd">
<svg version="1.0" xmlns="http://www.w3.org/2000/svg"
 width="1309.000000pt" height="1309.000000pt" viewBox="0 0 1309.000000 1309.000000"
 preserveAspectRatio="xMidYMid meet">
<metadata>
Created by potrace 1.11, written by Peter Selinger 2001-2013
</metadata>
<g transform="translate(0.000000,1309.000000) scale(0.100000,-0.100000)"
fill="#000000" stroke="none">
<path d="M9347 7912 c-39 -24 -71 -93 -63 -138 8 -37 60 -104 82 -104 28 0 13
-15 -32 -34 -64 -26 -103 -62 -130 -121 -23 -48 -24 -58 -24 -307 l0 -257 63
-3 62 -3 25 -392 24 -393 62 0 61 0 6 83 c4 45 16 204 27 352 11 149 23 289
26 313 l5 42 65 0 65 0 -3 263 c-3 246 -4 264 -25 302 -30 56 -82 103 -137
124 l-48 18 36 21 c84 50 86 182 4 232 -41 25 -113 26 -151 2z"/>
<path d="M1280 7537 l-635 -372 -3 -493 c-1 -297 -6 -492 -12 -492 -5 0 -65
34 -133 75 -68 41 -131 77 -140 81 -16 6 -17 -15 -17 -239 l0 -244 752 -442
c414 -242 771 -452 793 -465 l40 -24 435 235 c239 129 436 236 437 237 1 1 3
118 4 261 l2 260 -646 370 c-355 204 -646 374 -647 379 -2 6 88 68 198 139
l201 128 720 -410 c396 -226 723 -411 726 -411 3 0 5 112 5 249 l0 249 -62 34
-63 35 -5 252 -5 253 -640 364 c-352 200 -647 363 -655 363 -8 0 -301 -168
-650 -372z"/>
<path d="M6350 6705 l0 -545 115 0 115 0 0 545 0 545 -115 0 -115 0 0 -545z"/>
<path d="M4050 7186 c-83 -17 -124 -48 -157 -114 -26 -54 -28 -65 -28 -187 0
-120 2 -134 26 -180 51 -101 116 -115 526 -115 289 0 292 0 317 -22 27 -25 29
-34 27 -115 -1 -39 -6 -58 -21 -73 -19 -19 -33 -20 -450 -20 l-430 0 0 -100 0
-100 418 0 c229 0 448 5 487 10 98 15 147 46 181 116 26 53 28 65 28 183 0
135 -12 181 -57 229 -64 69 -143 81 -524 82 l-282 0 -20 26 c-38 48 -22 170
24 188 9 3 95 6 191 6 l174 0 0 100 0 100 -187 -1 c-104 0 -213 -6 -243 -13z"/>
<path d="M5393 6980 c-155 -14 -234 -64 -264 -170 -9 -29 -13 -109 -14 -230 0
-226 9 -265 76 -332 69 -69 112 -79 352 -85 l197 -6 0 86 0 85 -176 4 -176 3
-24 28 c-18 22 -24 40 -24 78 l0 49 426 0 426 0 -4 168 c-4 184 -14 220 -70
267 -57 48 -112 57 -383 60 -137 2 -291 0 -342 -5z m547 -190 c16 -16 20 -33
20 -85 l0 -65 -310 0 -310 0 0 56 c0 48 4 59 29 85 l29 29 261 0 c248 0 262
-1 281 -20z"/>
<path d="M7032 6980 c-154 -14 -232 -65 -264 -174 -8 -25 -12 -111 -13 -226 0
-226 9 -265 76 -332 69 -69 112 -79 352 -85 l197 -6 0 86 0 85 -176 4 -176 3
-24 28 c-18 22 -24 40 -24 77 l0 50 423 2 422 3 3 134 c3 173 -8 230 -56 280
-61 64 -106 72 -397 76 -137 2 -292 0 -343 -5z m548 -190 c16 -16 20 -33 20
-85 l0 -65 -310 0 -310 0 0 56 c0 48 4 59 29 85 l29 29 261 0 c248 0 262 -1
281 -20z"/>
<path d="M8290 6980 c-110 -11 -190 -41 -230 -87 -64 -72 -70 -108 -70 -443
l-1 -285 111 -3 110 -3 0 263 c0 379 -9 368 305 367 219 0 255 -7 289 -52 20
-27 21 -43 24 -303 l3 -274 110 0 111 0 -4 308 -3 307 -30 60 c-36 71 -83 108
-170 130 -72 19 -425 28 -555 15z"/>
<path d="M9827 6983 c-11 -10 -8 -469 3 -553 13 -101 48 -170 106 -208 76 -51
121 -57 424 -57 315 0 356 7 434 76 78 69 80 81 84 437 l3 313 -108 -3 -108
-3 -5 -275 c-4 -244 -7 -279 -23 -303 -31 -47 -55 -52 -282 -52 -189 0 -213 2
-242 19 -55 34 -57 46 -61 344 l-3 272 -108 0 c-59 0 -111 -3 -114 -7z"/>
<path d="M11285 6981 c-115 -15 -169 -50 -206 -134 -23 -51 -24 -60 -24 -367
l0 -315 108 -3 107 -3 0 253 c0 139 5 271 10 293 5 23 21 50 36 63 26 23 32
24 178 20 154 -3 184 -10 203 -48 5 -8 10 -141 13 -295 l5 -280 98 -3 97 -3 0
273 c0 198 4 280 13 298 24 47 68 60 215 60 139 0 180 -10 198 -47 5 -10 11
-144 14 -298 l5 -280 108 -3 107 -3 0 309 c0 348 -6 387 -65 446 -58 58 -113
70 -325 71 -215 0 -263 -10 -320 -64 -20 -20 -40 -43 -44 -51 -5 -12 -7 -12
-12 -2 -17 37 -69 82 -112 97 -54 18 -310 29 -407 16z"/>
<path d="M7989 5961 c-83 -26 -100 -59 -107 -207 -10 -237 15 -302 125 -324
86 -18 399 -9 439 12 57 31 68 60 72 191 l4 117 -61 0 -61 0 0 -88 c0 -135 4
-132 -194 -132 -124 0 -167 3 -182 14 -17 13 -19 27 -19 150 0 172 -2 169 135
174 l100 4 0 49 0 49 -112 -1 c-62 0 -125 -4 -139 -8z"/>
<path d="M8610 5693 c0 -149 2 -172 20 -200 33 -55 69 -67 221 -71 165 -5 235
7 273 47 38 39 45 82 46 249 l0 142 -60 0 -60 0 0 -144 c0 -188 -1 -190 -130
-195 -94 -3 -144 2 -170 19 -12 7 -16 41 -20 162 l-5 153 -57 3 -58 3 0 -168z"/>
<path d="M9383 5850 c-43 -10 -79 -34 -100 -67 -15 -23 -19 -55 -21 -195 l-4
-168 61 0 61 0 0 150 c0 182 4 190 100 190 l60 0 0 50 0 50 -62 -1 c-35 -1
-78 -4 -95 -9z"/>
<path d="M9612 5693 c5 -258 16 -268 283 -268 261 0 273 12 276 270 l1 160
-59 0 -58 0 -3 -151 c-2 -126 -5 -154 -19 -165 -12 -10 -50 -14 -139 -14 -165
0 -158 -8 -162 185 l-3 150 -61 0 -60 0 4 -167z"/>
<path d="M10563 5849 c-58 -14 -90 -49 -104 -117 -14 -70 -6 -189 16 -235 30
-63 62 -71 298 -75 l207 -4 0 51 0 50 -186 3 c-181 3 -186 4 -205 27 -27 33
-27 149 0 182 19 23 24 24 205 27 l186 4 0 49 0 49 -187 -1 c-104 -1 -207 -5
-230 -10z"/>
<path d="M11177 5849 c-90 -21 -117 -70 -117 -212 0 -116 20 -165 76 -192 31
-15 68 -20 175 -23 227 -7 286 17 310 128 13 63 7 187 -13 226 -18 38 -58 65
-109 75 -57 11 -273 10 -322 -2z m300 -108 c39 -20 43 -172 6 -203 -11 -9 -52
-13 -140 -13 -119 0 -126 1 -144 24 -14 18 -19 39 -19 90 0 79 16 108 63 114
56 8 212 1 234 -12z"/>
<path d="M11795 5845 c-22 -8 -41 -15 -42 -15 -1 0 -10 -15 -20 -32 -15 -28
-18 -60 -18 -203 l0 -170 58 -3 57 -3 0 149 c0 189 -1 187 114 187 62 0 90 -4
100 -15 12 -12 16 -50 18 -165 l3 -150 53 -3 52 -3 0 148 c0 81 4 154 8 161
20 30 145 43 192 19 25 -12 25 -14 30 -167 l5 -155 58 -3 57 -3 0 174 c0 165
-1 176 -23 208 -30 44 -71 58 -182 58 -105 1 -159 -11 -180 -41 l-15 -22 -23
22 c-13 12 -39 27 -58 32 -50 15 -198 11 -244 -5z"/>
<path d="M10273 5553 c-8 -3 -13 -26 -13 -63 0 -63 6 -70 60 -70 54 0 60 7 60
70 0 44 -4 59 -16 64 -18 7 -73 7 -91 -1z"/>
</g>
</svg>
