<?xml version="1.0" standalone="no"?>
<!DOCTYPE svg PUBLIC "-//W3C//DTD SVG 20010904//EN"
 "http://www.w3.org/TR/2001/REC-SVG-20010904/DTD/svg10.dtd">
<svg version="1.0" xmlns="http://www.w3.org/2000/svg"
 width="16.000000pt" height="16.000000pt" viewBox="0 0 16.000000 16.000000"
 preserveAspectRatio="xMidYMid meet">
<metadata>
Created by potrace 1.11, written by Peter Selinger 2001-2013
</metadata>
<g transform="translate(0.000000,16.000000) scale(0.005263,-0.005263)"
fill="#000000" stroke="none">
<path d="M253 2042 l-253 -127 0 -395 0 -395 263 -130 262 -131 260 131 260
131 0 394 0 393 -255 128 c-140 71 -262 128 -270 128 -8 0 -129 -57 -267 -127z
m528 -280 c0 -9 1 -125 2 -257 l1 -240 -131 -67 -131 -68 -129 64 -129 65 -1
261 -1 260 130 65 129 65 129 -65 c90 -45 130 -70 131 -83z"/>
<path d="M1305 1909 c-40 -12 -92 -62 -110 -106 -65 -154 89 -312 243 -248 69
30 111 86 117 157 11 138 -115 238 -250 197z m132 -49 c139 -84 69 -300 -90
-276 -75 11 -128 77 -122 153 8 110 123 177 212 123z"/>
<path d="M2754 1752 c-58 -138 -74 -168 -92 -170 -14 -2 -22 -10 -22 -23 0
-16 7 -19 54 -19 58 0 80 15 52 36 -16 11 -16 15 5 63 l21 51 58 0 58 0 17
-42 c9 -24 19 -49 22 -55 3 -7 -2 -13 -11 -13 -9 0 -16 -8 -16 -20 0 -18 7
-20 60 -20 53 0 60 2 60 20 0 14 -7 20 -22 20 -20 0 -32 21 -92 165 -38 91
-72 168 -76 170 -3 2 -38 -71 -76 -163z m84 62 c-3 -3 2 -22 12 -42 l18 -37
-35 -3 c-19 -2 -37 -1 -39 1 -9 9 31 87 44 87 3 0 3 -2 0 -6z"/>
<path d="M1560 1890 c0 -14 7 -20 23 -20 22 0 22 -1 22 -142 0 -141 0 -143
-22 -146 -15 -2 -23 -10 -23 -23 0 -17 7 -19 64 -19 59 0 65 2 63 20 -1 12 -8
20 -18 20 -15 0 -18 13 -21 101 -2 56 0 103 4 105 4 2 37 -36 75 -86 37 -49
70 -90 73 -90 3 0 37 43 75 95 39 52 71 95 73 95 1 0 2 -49 2 -110 0 -103 -1
-110 -20 -110 -13 0 -20 -7 -20 -20 0 -18 7 -20 65 -20 58 0 65 2 65 20 0 14
-7 20 -24 20 l-24 0 1 145 0 145 24 0 c16 0 23 6 23 20 0 16 -7 20 -32 20 -30
-1 -40 -11 -118 -115 -47 -63 -87 -115 -90 -115 -3 0 -45 52 -93 115 -77 100
-92 115 -118 115 -22 0 -29 -5 -29 -20z"/>
<path d="M2060 1890 c0 -11 6 -20 14 -20 12 0 15 -26 14 -145 0 -118 -3 -145
-14 -145 -8 0 -14 -9 -14 -20 0 -19 7 -20 133 -20 l133 0 -1 38 c0 31 -4 38
-23 40 -17 3 -22 -2 -22 -17 0 -19 -6 -21 -75 -21 l-75 0 0 65 0 65 84 0 c79
0 85 1 83 20 -1 18 -8 20 -84 20 l-83 0 0 60 0 61 73 -3 c56 -2 72 -6 72 -18
0 -8 10 -16 22 -18 19 -3 22 1 20 37 l-2 41 -127 0 c-121 0 -128 -1 -128 -20z"/>
<path d="M2445 1896 c-155 -72 -152 -287 5 -352 53 -23 141 -13 161 18 4 7 5
91 0 121 0 4 -23 7 -50 7 -41 0 -49 -3 -47 -17 2 -11 13 -19 29 -21 23 -3 27
-8 27 -37 0 -40 -21 -50 -78 -40 -123 21 -158 173 -61 264 27 24 94 36 130 22
25 -9 49 0 49 19 0 26 -119 37 -165 16z"/>
<path d="M1650 1507 c0 -9 -11 -40 -24 -69 -14 -29 -44 -100 -69 -158 -34 -83
-48 -106 -65 -108 -14 -2 -22 -11 -22 -23 0 -17 7 -19 59 -19 54 0 60 2 58 20
-1 11 -7 20 -15 20 -14 0 -11 15 14 77 14 32 16 33 73 33 l58 0 19 -47 c11
-27 21 -51 22 -55 2 -5 -3 -8 -12 -8 -9 0 -16 -8 -16 -20 0 -18 7 -20 60 -20
53 0 60 2 60 20 0 14 -7 20 -24 20 -14 0 -26 7 -29 18 -9 29 -134 322 -141
329 -3 4 -6 -1 -6 -10z m31 -147 l18 -40 -39 0 c-42 0 -42 -2 -18 63 12 32 15
31 39 -23z"/>
<path d="M1180 1480 c0 -11 7 -20 15 -20 13 0 15 -23 15 -145 0 -122 -2 -145
-15 -145 -8 0 -15 -9 -15 -20 0 -20 5 -20 132 -18 l132 3 1 35 c0 29 -4 36
-22 38 -18 3 -23 -2 -23 -17 0 -19 -6 -21 -75 -21 l-75 0 2 145 c2 143 2 145
24 145 15 0 21 5 20 18 -2 13 -15 18 -59 20 -52 3 -57 1 -57 -18z"/>
<path d="M1860 1481 c0 -10 5 -21 12 -23 16 -6 15 -281 -1 -286 -6 -2 -11 -13
-11 -23 0 -19 7 -20 92 -18 91 2 93 2 127 36 30 30 33 38 28 71 -4 22 -17 46
-33 60 l-26 23 21 20 c11 11 22 25 22 32 6 57 3 71 -22 97 -26 25 -34 27 -118
29 -84 2 -91 1 -91 -18z m172 -38 c25 -23 23 -68 -4 -87 -23 -16 -97 -22 -99
-8 -3 25 -4 98 -1 105 7 14 85 7 104 -10z m-9 -152 c14 -5 29 -23 35 -40 9
-25 7 -34 -8 -54 -16 -21 -28 -24 -72 -23 l-52 1 1 53 c0 28 1 57 2 62 1 13
62 13 94 1z"/>
<path d="M2166 1471 c-57 -60 -29 -136 59 -162 57 -17 74 -30 81 -65 7 -39
-13 -63 -58 -71 -40 -6 -90 17 -87 40 3 27 -2 37 -21 37 -16 0 -20 -7 -20 -34
0 -93 186 -117 222 -29 30 76 -9 139 -100 159 -27 5 -62 35 -62 52 0 29 29 62
55 62 34 0 55 -10 55 -26 0 -8 10 -14 23 -14 23 0 24 4 18 51 -2 13 -54 29
-95 29 -34 0 -48 -6 -70 -29z"/>
</g>
</svg>
