<svg id="Layer_1" data-name="Layer 1" xmlns="http://www.w3.org/2000/svg" viewBox="0 0 301.63 130.65"><defs><style>.cls-1{fill:#f9a146;}.cls-2{fill:#ee5823;}.cls-3{fill:#f37b21;}.cls-4{fill:#e02726;}.cls-5{fill:#302e2f;}</style></defs><title>Omega-Labs</title><polygon class="cls-1" points="0 78.39 26.13 65.33 26.13 91.46 0 78.39"/><polygon class="cls-1" points="0 52.26 26.13 39.2 26.13 65.33 0 52.26"/><polygon class="cls-2" points="0 104.52 26.13 91.46 26.13 117.59 0 104.52"/><polygon class="cls-3" points="52.26 104.52 26.13 117.59 26.13 91.46 52.26 104.52"/><polygon class="cls-3" points="52.26 26.13 26.13 39.2 26.13 13.06 52.26 26.13"/><polygon class="cls-4" points="26.13 117.59 52.26 104.52 52.26 130.65 26.13 117.59"/><polygon class="cls-4" points="26.13 13.06 52.26 0 52.26 26.13 26.13 13.06"/><polygon class="cls-2" points="0 26.13 26.13 13.06 26.13 39.2 0 26.13"/><polygon class="cls-3" points="0 104.52 0 78.39 26.13 91.46 0 104.52"/><polygon class="cls-3" points="0 78.39 0 52.26 26.13 65.33 0 78.39"/><polygon class="cls-3" points="0 52.26 0 26.13 26.13 39.2 0 52.26"/><polygon class="cls-1" points="104.52 78.39 78.39 65.33 78.39 91.46 104.52 78.39"/><polygon class="cls-1" points="104.52 52.26 78.39 39.2 78.39 65.33 104.52 52.26"/><polygon class="cls-2" points="104.52 104.52 78.39 91.46 78.39 117.59 104.52 104.52"/><polygon class="cls-3" points="52.26 104.52 78.39 117.59 78.39 91.46 52.26 104.52"/><polygon class="cls-3" points="52.26 26.13 78.39 39.2 78.39 13.06 52.26 26.13"/><polygon class="cls-4" points="78.39 117.59 52.26 104.52 52.26 130.65 78.39 117.59"/><polygon class="cls-4" points="78.39 13.06 52.26 0 52.26 26.13 78.39 13.06"/><polygon class="cls-2" points="104.52 26.13 78.39 13.06 78.39 39.2 104.52 26.13"/><polygon class="cls-3" points="104.52 104.52 104.52 78.39 78.39 91.46 104.52 104.52"/><polygon class="cls-3" points="104.52 78.39 104.52 52.26 78.39 65.33 104.52 78.39"/><polygon class="cls-3" points="104.52 52.26 104.52 26.13 78.39 39.2 104.52 52.26"/><path class="cls-5" d="M159.8,70a18.33,18.33,0,0,1,1.47-7.28,19,19,0,0,1,10-10.09,18.5,18.5,0,0,1,14.59,0,19.2,19.2,0,0,1,10.09,10.09,18.5,18.5,0,0,1,0,14.59,19,19,0,0,1-10.09,10,18.81,18.81,0,0,1-14.59,0,18.82,18.82,0,0,1-10-10A18.26,18.26,0,0,1,159.8,70Zm4.36,0a14.25,14.25,0,0,0,1.13,5.67,14.41,14.41,0,0,0,3.1,4.6,15,15,0,0,0,4.6,3.11,14.33,14.33,0,0,0,11.25,0,15,15,0,0,0,4.6-3.11,14.42,14.42,0,0,0,3.1-4.6,14.8,14.8,0,0,0,0-11.35,14.67,14.67,0,0,0-7.7-7.76,14.32,14.32,0,0,0-11.25,0,14.67,14.67,0,0,0-7.7,7.76A14.25,14.25,0,0,0,164.16,70Z" transform="translate(-42.19 -25.17)"/><path class="cls-5" d="M239.75,51.54h5.89v4.15h-4.57V84.18h4.57v4.15H232.91V84.18h3.79V63.63q.05-.42.08-.84c0-.28,0-.56.08-.84q-.42.58-.84,1.21t-.84,1.21q-3.16,4.47-6.61,8.75t-6.77,8.65l-14.06-18.4-.94-1.42c0,.28.06.56.08.84s0,.56.08.84V84.18h3.79v4.15H198V84.18h4.57V55.69H198V51.54h5.89q4.51,5.84,8.95,11.64t8.95,11.64q4.53-5.83,9-11.64T239.75,51.54Z" transform="translate(-42.19 -25.17)"/><path class="cls-5" d="M248.21,84.18h2.94V55.69h-2.94V51.54h25.6v8.1h-4.15V55.69H255.52v12h16.24v4.15H255.52v12.3h14.88V80.24h4.15v8.09H248.21Z" transform="translate(-42.19 -25.17)"/><path class="cls-5" d="M303.4,72.67V86.23a20.87,20.87,0,0,1-4.49,1.92,17.74,17.74,0,0,1-5.07.71,18.27,18.27,0,0,1-7.31-1.47,18.82,18.82,0,0,1-10-10,18.26,18.26,0,0,1-1.47-7.31,18.45,18.45,0,0,1,1.47-7.33,18.86,18.86,0,0,1,4-6,19.32,19.32,0,0,1,6-4,18,18,0,0,1,7.31-1.5,18.4,18.4,0,0,1,5.07.68,19.67,19.67,0,0,1,4.55,1.94L301,57.37a15.52,15.52,0,0,0-3.42-1.47,13.38,13.38,0,0,0-3.78-.53,13.64,13.64,0,0,0-5.6,1.16,14.61,14.61,0,0,0-4.57,3.18,15,15,0,0,0-3.1,4.7,14.69,14.69,0,0,0,3.1,16,15,15,0,0,0,4.57,3.13,13.63,13.63,0,0,0,5.6,1.16,14.43,14.43,0,0,0,5.2-.95V76.82h-5.41V72.67Z" transform="translate(-42.19 -25.17)"/><path class="cls-5" d="M306.08,84.18h4.28Q314,75.51,317.65,67t7.28-17.16q3.63,8.67,7.28,17.16t7.28,17.16h4.34v4.15H332.21V84.18h2.92L332.93,79l-2.19-5.2H319.15l-4.42,10.41h3v4.15H306.08ZM325.4,61.26l-.53-1.73a1.55,1.55,0,0,0-.11.37,4.8,4.8,0,0,1-.16.58c-.07.25-.16.51-.26.79q-.68,1.52-1.26,3-.53,1.26-1.1,2.73t-1.05,2.63h8Z" transform="translate(-42.19 -25.17)"/><path class="cls-5" d="M159.8,125.46h2.94V97H159.8V92.82h11.67V97H167.1v28.49H182v-3.94h4.15v8.09H159.8Z" transform="translate(-42.19 -25.17)"/><path class="cls-5" d="M188.81,125.46h4.28q3.63-8.67,7.28-17.16t7.28-17.16q3.63,8.67,7.28,17.16t7.28,17.16h4.34v4.15H214.94v-4.15h2.92l-2.19-5.2-2.19-5.2H201.87l-4.42,10.41h3v4.15H188.81Zm19.32-22.92-.53-1.73a1.55,1.55,0,0,0-.11.37,4.8,4.8,0,0,1-.16.58c-.07.25-.16.51-.26.79q-.68,1.52-1.26,3-.53,1.26-1.1,2.73t-1.05,2.63h8Z" transform="translate(-42.19 -25.17)"/><path class="cls-5" d="M228.08,125.46h2.37V97h-2.37V92.82h12a19.65,19.65,0,0,1,4.71.53A10.15,10.15,0,0,1,248.39,95a7.52,7.52,0,0,1,2.34,2.86,9.62,9.62,0,0,1,.84,4.18,10.55,10.55,0,0,1-1.55,5.73,7.82,7.82,0,0,1-4.7,3.36,11.11,11.11,0,0,1,2.86,1.05,8.53,8.53,0,0,1,2.42,1.89,9.46,9.46,0,0,1,1.66,2.68,8.86,8.86,0,0,1,.63,3.42,8.23,8.23,0,0,1-1,4.13,9.08,9.08,0,0,1-2.65,2.94,12.11,12.11,0,0,1-3.81,1.79,16.27,16.27,0,0,1-4.42.6H228.08ZM234.81,97v12h5.68a6.82,6.82,0,0,0,4.92-1.73,6,6,0,0,0,1.81-4.57q0-3.1-1.89-4.42A8.5,8.5,0,0,0,240.38,97Zm0,16.19v12.3h5.83a12.1,12.1,0,0,0,3-.37,7.54,7.54,0,0,0,2.5-1.13,5.77,5.77,0,0,0,1.71-1.87,5.21,5.21,0,0,0,.63-2.63,5.36,5.36,0,0,0-.74-2.84,6.08,6.08,0,0,0-1.92-2,8.71,8.71,0,0,0-2.76-1.13,14.1,14.1,0,0,0-3.21-.37Z" transform="translate(-42.19 -25.17)"/><path class="cls-5" d="M254.78,124.73v-6.1h4.15v4.68a13.68,13.68,0,0,0,3.26,1.81,11.31,11.31,0,0,0,4.26.76,8.75,8.75,0,0,0,2.63-.39,7,7,0,0,0,2.23-1.16,5.58,5.58,0,0,0,1.55-1.92,5.93,5.93,0,0,0,.58-2.68,6.28,6.28,0,0,0-1.26-4.21,8.54,8.54,0,0,0-3.15-2.29,29,29,0,0,0-4.1-1.39,19.69,19.69,0,0,1-4.13-1.58,9.06,9.06,0,0,1-3.21-2.79,8.77,8.77,0,0,1-1.34-5,10.76,10.76,0,0,1,.47-3.47,8.69,8.69,0,0,1,1.73-3.15,8.89,8.89,0,0,1,3.21-2.31,11.94,11.94,0,0,1,4.89-.89q.95,0,2.05.1a14.84,14.84,0,0,1,2.31.42,13.42,13.42,0,0,1,2.5.95A12.79,12.79,0,0,1,276,95.76v5.15h-4.15v-3.1a15.14,15.14,0,0,0-2.31-.74,12.41,12.41,0,0,0-2.89-.32,5.6,5.6,0,0,0-4.52,1.73,6.13,6.13,0,0,0-1.47,4.1,4.11,4.11,0,0,0,.74,2.55,5.94,5.94,0,0,0,1.94,1.63,14.8,14.8,0,0,0,2.76,1.13q1.55.47,3.15,1a27.41,27.41,0,0,1,3.15,1.31,10,10,0,0,1,2.76,2,9.31,9.31,0,0,1,1.95,3,12,12,0,0,1,.74,4.49,10.11,10.11,0,0,1-.87,4.26,9.7,9.7,0,0,1-2.37,3.23,10.4,10.4,0,0,1-3.5,2.05,12.46,12.46,0,0,1-4.21.71,16.89,16.89,0,0,1-3.89-.45,17.83,17.83,0,0,1-3.47-1.18,15.08,15.08,0,0,1-2.81-1.68A8.15,8.15,0,0,1,254.78,124.73Z" transform="translate(-42.19 -25.17)"/></svg>